<svg width="40" height="40" viewBox="0 0 40 40" fill="none" xmlns="http://www.w3.org/2000/svg">
<g clip-path="url(#clip0_2070_8825)">
<path d="M10.7909 10.6528C10.7909 8.49619 10.7909 7.41791 11.2397 6.82935C11.6306 6.31673 12.2273 6.00222 12.8711 5.96952C13.6103 5.93197 14.4998 6.54143 16.2788 7.76036L29.9827 17.1498C31.3991 18.1202 32.1073 18.6054 32.3556 19.213C32.5729 19.7444 32.5729 20.3399 32.3556 20.8713C32.1073 21.4789 31.3991 21.9641 29.9828 22.9346L16.2788 32.324C14.4998 33.543 13.6103 34.1524 12.8711 34.1149C12.2273 34.0822 11.6306 33.7677 11.2397 33.255C10.7909 32.6665 10.7909 31.5882 10.7909 29.4316V10.6528Z" fill="white"/>
</g>
<defs>
<clipPath id="clip0_2070_8825">
<rect width="40" height="40" fill="white"/>
</clipPath>
</defs>
</svg>
